<?xml version="1.0" encoding="UTF-8"?><svg id="Layer_1" xmlns="http://www.w3.org/2000/svg" width="602.15" height="1058.39" viewBox="0 0 602.15 1058.39"><defs><style>.cls-1,.cls-2,.cls-3,.cls-4,.cls-5,.cls-6,.cls-7,.cls-8,.cls-9,.cls-10{stroke:#1d1d1b;stroke-linecap:round;stroke-miterlimit:10;}.cls-1,.cls-2,.cls-3,.cls-7,.cls-8,.cls-9,.cls-10{stroke-width:3px;}.cls-1,.cls-4{fill:#ff0;}.cls-11{fill:#1d1d1b;}.cls-11,.cls-12,.cls-13,.cls-14,.cls-15{stroke-width:0px;}.cls-2{fill:aqua;}.cls-12{fill:#ff0afb;}.cls-3{fill:#ff1d25;}.cls-4,.cls-5{stroke-width:2px;}.cls-13,.cls-6,.cls-7{fill:#000;}.cls-5{fill:#f0f;}.cls-14{fill:#ffc79d;}.cls-8{fill:#f2f2f2;}.cls-15{fill:#00b6df;}.cls-9{fill:#fcca21;}.cls-10{fill:#ffcdac;}</style></defs><path class="cls-14" d="M279.35,463.8c-16.52-1.11-32.35,8.67-42.35,21.87-10,13.2-15.07,29.44-18.96,45.54-16.17,66.92-15.02,136.65-13.78,205.49.27,15,.76,30.8,8.55,43.61,7.7,12.67,22.41,20.75,37.23,20.44,14.82-.3,29.19-8.97,36.37-21.95,6.54-11.82,7.1-25.92,7.49-39.43,1.36-46.01,2.71-92.02,4.07-138.02-7.12,121.22-10.53,242.67-10.21,364.1.03,13.25.19,26.9,5.37,39.1,12.74,29.98,50.28,40.22,82.85,40.17,5.48,0,11.24-.28,15.93-3.1,7.34-4.42,9.97-13.65,11.58-22.07,8.08-42.3,5.96-85.8,3.8-128.81-2.33-46.38-4.65-92.76-6.98-139.14,3.33,71.5,6.67,143.01,10,214.51.87,18.58,1.83,37.62,9.09,54.75,7.26,17.13,22.23,32.23,40.72,34.21,10.96,1.18,21.83-2.27,32.32-5.66,6.2-2.01,12.7-4.2,17.1-9.01,5.26-5.75,6.47-14.03,7.3-21.77,7.99-74.34,3.41-149.4-1.18-224.02-4.41-71.77-8.83-143.57-16.41-215.08,4.04,56.62,8.08,113.24,12.12,169.87.82,11.48,2.37,24.39,11.48,31.41,10.2,7.86,25.89,4.12,34.97-5,9.08-9.12,13.01-22.08,15.9-34.63,24.5-106.72-7.23-224.73-81.94-304.75"/><path class="cls-13" d="M279.35,462.3c-17.6-.96-33.71,9.31-43.96,23.04-12.06,16.15-17.01,36.52-21.16,55.88-9.37,43.67-11.84,88.47-12.09,133.03-.12,22.21.16,44.45.71,66.66.46,18.29,2.74,38.03,17.62,50.59,12.93,10.92,30.95,13.83,46.47,6.9,7.7-3.43,14.42-9.04,19.09-16.06,5.29-7.96,7.49-17.47,8.48-26.86,1.13-10.64,1.06-21.43,1.37-32.12.34-11.71.69-23.41,1.03-35.12.68-23.21,1.37-46.42,2.05-69.63.17-5.75.34-11.5.51-17.25.06-1.94-2.89-1.92-3,0-3.42,58.35-6,116.75-7.7,175.18-1.7,58.22-2.54,116.47-2.53,174.72,0,23.51-1.96,49.45,14.65,68.35,12.78,14.54,32.21,21.67,50.86,24.7,10.04,1.63,20.8,2.72,30.95,1.62,5.11-.56,9.99-2.21,13.66-5.93s5.55-8.29,6.93-13.01c3.62-12.42,4.84-25.91,5.95-38.76,1.21-14.09,1.59-28.25,1.5-42.39-.19-28.64-2.06-57.27-3.5-85.88-1.45-28.94-2.9-57.87-4.35-86.81-.36-7.18-.72-14.37-1.08-21.55-.1-1.92-3.09-1.94-3,0,2.74,58.76,5.48,117.53,8.22,176.29.66,14.23,1.29,28.46,1.99,42.68.65,13.12,1.57,26.38,4.99,39.12,5.41,20.18,19.06,40.59,40.45,45.88,12.99,3.22,26.05-.72,38.38-4.73,5.12-1.67,10.39-3.41,14.73-6.69,4.2-3.17,6.88-7.6,8.45-12.57,1.8-5.74,2.23-11.87,2.83-17.82.73-7.27,1.34-14.55,1.85-21.85,1-14.37,1.58-28.77,1.84-43.17,1.06-57.98-3-115.9-6.58-173.73-3.6-58.11-7.38-116.22-13.04-174.17-.69-7.12-1.42-14.23-2.17-21.34-.2-1.88-3.14-1.95-3,0,3.51,49.24,7.03,98.47,10.54,147.71.77,10.78,1.03,21.75,2.66,32.45,1.26,8.27,4.03,16.84,10.85,22.19,14.02,11.01,33.51,1.57,42.3-11.36,5.48-8.06,8.38-17.61,10.62-26.99s4.02-18.98,5.38-28.58c2.68-18.97,3.72-38.16,3.1-57.31-1.23-38.52-8.97-76.83-22.68-112.84s-33.16-69.37-58.01-98.57c-3.14-3.69-6.37-7.3-9.66-10.84-1.32-1.42-3.44.71-2.12,2.12,25.21,27.08,45.56,58.47,60.44,92.33,15.02,34.16,24.47,70.84,27.82,108.01,3.3,36.58,1.21,74.69-8.52,110.22-4.67,17.05-15.75,37.25-36.45,35.46-21.68-1.87-20.85-29.95-21.98-45.8-3.35-46.98-6.7-93.96-10.05-140.94-.41-5.74-.82-11.49-1.23-17.23h-3c5.93,56.07,9.94,112.33,13.52,168.59s7.7,112.18,8.35,168.36c.32,27.8-.3,55.63-2.52,83.35-.55,6.92-1.16,13.85-1.98,20.75-.69,5.79-1.74,11.89-5.09,16.8-3.53,5.18-9.46,7.71-15.19,9.66-6.34,2.16-12.79,4.26-19.36,5.59-12.19,2.47-23.95.71-34.25-6.41-8.72-6.03-15.44-14.87-19.81-24.47-5.54-12.16-7.58-25.64-8.64-38.86-1.07-13.37-1.44-26.81-2.07-40.21-2.64-56.71-5.29-113.42-7.93-170.13-.33-6.99-.65-13.97-.98-20.96h-3c2.81,55.94,6.17,111.89,8.3,167.87,1.03,27.27,1.17,54.68-2.24,81.8-.86,6.86-1.89,13.75-3.36,20.51-1.13,5.19-2.7,10.63-6.11,14.81-7.16,8.78-21.17,6.96-31.27,6.18-19.22-1.48-39.74-6.56-54.83-19.19-7.76-6.5-13.59-14.91-16.6-24.61-3.84-12.39-3.43-25.65-3.45-38.48-.1-56.39.6-112.79,2.11-169.17,1.5-56.37,3.81-112.73,6.92-169.04.39-6.99.78-13.97,1.19-20.96h-3c-1.28,43.54-2.57,87.09-3.85,130.63-.55,18.72.19,40.24-13.9,54.62-12.51,12.78-31.99,16.29-47.98,8.14-7.76-3.95-14.17-10.16-18.17-17.92-4.44-8.61-5.85-18.43-6.42-28-1.21-20.42-.97-41.04-1.04-61.49-.13-42.15,1.27-84.51,8.32-126.14,3.3-19.49,7.08-39.79,15.11-57.97,7.31-16.55,20-31.83,38.11-36.66,4.16-1.11,8.4-1.51,12.69-1.27,1.93.11,1.92-2.9,0-3h0Z"/><path class="cls-4" d="M267.37,225.17c7-38.3,9.28-77.15-2.64-118.15-4.46-15.33-25.19-86.68-76.43-102.81-50.32-15.84-103.28,30.03-129.13,70.58-42.52,66.71-30.75,148.9-13.18,271.59,14.67,102.41-66.28,109.12-39.53,118.15,53.4,18.03,235.39-99.8,260.9-239.37Z"/><path class="cls-1" d="M146.15,270.1c1.42-17.95,5.5-49.17,19.13-79.24,11.24-24.78,23.9-37.6,39.27-52.83,23.16-22.95,44.18-34.13,56.38-39.62,30.46-13.71,53.28-13.18,97.66-11.56,32.4,1.18,60.35,2.46,96.65,16.51,20.62,7.98,39.67,15.59,62.42,36.32,32.42,29.54,49.8,65.16,53.36,72.64,5.5,11.54,12.56,27.6,18.12,47.88"/><ellipse class="cls-10" cx="370.65" cy="309.12" rx="230" ry="174.57"/><path class="cls-3" d="M258.15,401.77c-.11-2.27.87-2.69,45.59-32.82,7.23-4.87,23.09-15.35,41.38-14.68.57.02,1.05.06,1.46.09,15.78,1.39,18.7,15.68,33.16,17.02,5.66.53,5.47-2.2,30.4-13.37,19.12-8.57,23.88-8.85,27.63-8.51,7.16.66,12.28,3.76,22.11,9.72,5.36,3.25,9.63,6.67,17.96,13.37,9.92,7.98,14.88,11.98,15.2,13.37,2.99,13.05-52.15,44.69-116.06,48.62-56.96,3.5-117.98-15.2-118.82-32.82Z"/><ellipse class="cls-2" cx="262.15" cy="292.61" rx="46.5" ry="45.02"/><ellipse class="cls-8" cx="261.65" cy="310.62" rx="41" ry="27.01"/><ellipse class="cls-7" cx="278.65" cy="316.62" rx="16" ry="16.01"/><path class="cls-11" d="M229.94,291.88c-14.19-7.7-23.96-22.17-25.47-38.31-.45-4.86-.2-9.76.77-14.54.39-1.89-2.51-2.69-2.89-.8-3.56,17.4,2,35.73,14.84,48.04,3.36,3.22,7.15,5.98,11.23,8.2,1.7.92,3.21-1.67,1.51-2.59h0Z"/><path class="cls-11" d="M249.18,283.74c-15.72-6.67-17.68-25.78-18.7-40.59-.13-1.92-3.13-1.93-3,0,.63,9.08,1.29,18.4,4.94,26.86,3,6.96,8.15,13.31,15.25,16.32.75.32,1.6.22,2.05-.54.38-.63.21-1.74-.54-2.05h0Z"/><path class="cls-11" d="M266.16,283.22c-9.78-9.96-14.63-24.49-12.62-38.34.27-1.89-2.62-2.7-2.89-.8-2.17,14.94,2.79,30.46,13.39,41.26,1.35,1.38,3.48-.74,2.12-2.12h0Z"/><path class="cls-11" d="M287.03,286.96c-9.67-5.73-14.95-17.79-12.5-28.78.42-1.88-2.47-2.69-2.89-.8-2.74,12.31,3.02,25.74,13.88,32.17,1.67.99,3.18-1.61,1.51-2.59h0Z"/><path class="cls-11" d="M221.3,301.32c-8.38-.61-17.03-2.51-23.92-7.57-6.18-4.54-10.56-11.89-10.13-19.7.11-1.93-2.89-1.92-3,0-.37,6.69,2.46,13.1,6.86,18.02,4.67,5.22,11.12,8.49,17.82,10.29,4.04,1.09,8.2,1.66,12.36,1.96,1.93.14,1.92-2.86,0-3h0Z"/><ellipse class="cls-2" cx="487.29" cy="287.61" rx="50.14" ry="45.02"/><ellipse class="cls-8" cx="487.83" cy="305.61" rx="44.21" ry="27.01"/><ellipse class="cls-7" cx="469.5" cy="311.62" rx="17.25" ry="16.01"/><path class="cls-11" d="M523.6,289.47c15.7-7.9,27.12-23.02,28.98-40.67.55-5.2.2-10.46-.92-15.57-.42-1.89-3.31-1.09-2.89.8,1.89,8.59,1.23,17.59-1.81,25.85-2.78,7.53-7.61,14.19-13.62,19.47-3.41,2.99-7.21,5.49-11.25,7.53-1.73.87-.21,3.46,1.51,2.59h0Z"/><path class="cls-11" d="M502.49,281.48c7.44-2.92,13.14-8.88,16.55-16.03,4.07-8.51,4.83-18.03,5.52-27.3.14-1.93-2.86-1.92-3,0-.64,8.58-1.27,17.54-4.95,25.45-3.04,6.53-8.1,12.31-14.92,14.99-1.78.7-1,3.6.8,2.89h0Z"/><path class="cls-11" d="M485.16,280.34c11.13-10.52,16.79-26.07,14.41-41.26-.3-1.9-3.19-1.09-2.89.8,2.22,14.12-3.34,28.62-13.64,38.34-1.41,1.33.72,3.45,2.12,2.12h0Z"/><path class="cls-11" d="M462.03,284.55c11.23-6.17,17.95-19.52,14.91-32.17-.45-1.88-3.34-1.08-2.89.8,2.73,11.37-3.5,23.27-13.53,28.78-1.69.93-.18,3.52,1.51,2.59h0Z"/><path class="cls-11" d="M531.34,299.32c14.2-.96,30.64-5.41,37.47-19.26,1.69-3.42,2.59-7.19,2.36-11.02-.11-1.92-3.12-1.93-3,0,.49,8.12-4.63,15.45-11.17,19.82-7.54,5.04-16.76,6.85-25.67,7.45-1.92.13-1.93,3.13,0,3h0Z"/><rect class="cls-5" x="194.19" y="77.23" width="82.7" height="46.12" rx="23.05" ry="23.05" transform="translate(-20.02 115.31) rotate(-26.43)"/><path class="cls-9" d="M489.67,121.31c-2.81,1.6-10.91.34-26.98-2.24-19.69-3.17-29.77-4.83-41.17-8.54-16.99-5.53-25.49-8.3-30.2-13.89-18.78-22.3,5.89-74.02,13.53-72.81,7.19,1.14,3.66,49.72,10.28,50.24,5.53.44,9.59-33.33,18.46-33.54,9.85-.23,14.21,41.17,24.84,41.4,11.25.25,15.47-45.91,24.44-45.76,11.28.19,27.35,73.42,6.79,85.14Z"/><path class="cls-15" d="M295.33,722.99c-3.96,27.08-4.49,54.54-5.02,81.9-.08,4.1-.12,8.37,1.67,12.06,3.94,8.12,14.54,9.87,23.54,10.43,51.21,3.16,102.67.86,153.65-4.91,15.83-1.79,32.32-4.17,45.36-13.32,1.12-.79,2.25-1.67,2.87-2.9.71-1.42.63-3.08.54-4.66-1.65-26.59-5.15-53.06-10.47-79.16-.38-1.84-.79-3.75-1.95-5.23-1.48-1.88-3.89-2.73-6.2-3.34-12.07-3.18-24.77-2.38-37.23-1.75-34.95,1.76-69.97,2-104.94.71-20.08-.74-40.74-1.91-59.71,4.71-1.6.56-3.3,1.27-4.14,2.73s-.16,3.83,1.52,3.98"/><path class="cls-11" d="M293.88,722.59c-3.23,22.21-4.23,44.64-4.76,67.05-.13,5.52-.28,11.05-.34,16.57-.05,4.71.3,9.65,3.16,13.59,4.65,6.41,13.11,8.13,20.52,8.84,10.68,1.03,21.5,1.22,32.22,1.46,11.38.26,22.76.26,34.14.04,22.52-.44,45.02-1.77,67.45-3.83,10.71-.98,21.44-2.01,32.09-3.49,9.47-1.32,18.93-3.27,27.71-7.19,2.15-.96,4.24-2.04,6.25-3.26,1.86-1.13,3.98-2.33,5.42-4,1.69-1.96,1.85-4.31,1.7-6.79-.16-2.77-.36-5.54-.58-8.31-.85-11.05-2.02-22.08-3.5-33.06-1.5-11.17-3.33-22.31-5.49-33.37-.88-4.54-1.21-9.98-5.56-12.63-1.94-1.18-4.24-1.74-6.43-2.24-2.58-.59-5.2-1.01-7.83-1.32-10.85-1.26-21.81-.31-32.68.19-11.35.53-22.7.89-34.06,1.1-22.67.41-45.34.16-68-.69-10.46-.4-20.95-.84-31.41-.18-5.23.33-10.46.94-15.6,1.97-2.54.51-5.06,1.12-7.54,1.85-2.19.64-4.63,1.24-6.58,2.46-1.6,1.01-2.82,2.59-2.73,4.56.08,1.73,1.17,3.48,2.98,3.78s2.7-2.58.8-2.89c-.6-.1-.81-.57-.78-1.17.05-.89.86-1.47,1.57-1.87,2-1.12,4.45-1.68,6.65-2.29,4.78-1.34,9.68-2.24,14.62-2.81,10.02-1.15,20.13-1.03,30.19-.69,21.47.71,42.92,1.32,64.41,1.13,10.86-.09,21.72-.33,32.58-.72,10.63-.38,21.26-1.19,31.9-1.32,5.22-.07,10.47.09,15.64.85,2.46.36,4.91.85,7.3,1.51,1.95.54,4.11,1.27,5.28,3.04,1.28,1.93,1.5,4.57,1.94,6.79.53,2.64,1.04,5.29,1.53,7.94.96,5.22,1.86,10.46,2.68,15.71,1.66,10.6,3.01,21.26,4.06,31.94.53,5.37.98,10.74,1.36,16.12.09,1.22.17,2.45.25,3.67.08,1.32.28,2.73,0,4.03-.45,2.11-2.66,3.3-4.34,4.37-7.72,4.95-16.56,7.68-25.5,9.44-9.62,1.89-19.44,2.79-29.18,3.79-21.5,2.2-43.08,3.76-64.68,4.52-21.59.77-43.22.74-64.8-.23-5.02-.23-10.06-.41-15.06-.86-3.69-.34-7.39-.94-10.88-2.24-3.19-1.18-6.22-3.13-8.03-6.09-2.53-4.15-2.16-9.27-2.07-13.93.42-21.46.87-42.96,3.02-64.33.53-5.25,1.16-10.48,1.92-15.7.27-1.89-2.62-2.7-2.89-.8h0Z"/><path class="cls-12" d="M298.33,650.24c-.06-25.32-.12-50.64-.18-75.96,66.33,4.88,133.24,2.51,199.01-7.07,3.44,25.01,4.66,50.31,3.63,75.52-68.48.49-136.95,2.38-205.34,5.66"/><path class="cls-11" d="M299.83,650.24c-.05-19.74-.09-39.48-.14-59.22-.01-5.58-.03-11.16-.04-16.74l-1.5,1.5c25.98,1.91,52.04,2.71,78.09,2.4,26.05-.31,52.08-1.73,78.01-4.26,14.48-1.41,28.92-3.18,43.31-5.27l-1.85-1.05c2.65,19.35,3.96,38.88,3.93,58.41,0,5.57-.13,11.14-.35,16.71l1.5-1.5c-26.76.19-53.52.6-80.27,1.22-26.67.62-53.33,1.44-79.99,2.48-15.03.59-30.06,1.24-45.08,1.96-1.92.09-1.93,3.09,0,3,26.73-1.28,53.47-2.35,80.21-3.21,26.66-.85,53.33-1.5,80.01-1.93,15.04-.24,30.08-.42,45.12-.53.83,0,1.47-.68,1.5-1.5.8-19.81.23-39.67-1.72-59.4-.55-5.52-1.21-11.02-1.96-16.51-.12-.87-1.14-1.15-1.85-1.05-25.64,3.73-51.44,6.35-77.3,7.89-25.84,1.53-51.75,1.96-77.63,1.3-14.58-.37-29.14-1.1-43.69-2.17-.81-.06-1.5.74-1.5,1.5.05,19.74.09,39.48.14,59.22.01,5.58.03,11.16.04,16.74,0,1.93,3,1.93,3,0h0Z"/><path class="cls-11" d="M303.67,633.44c16.15,5.13,33.33,8.19,50.24,5.57,14.49-2.24,28.77-8.85,38.34-20.2,8.69-10.3,13.4-23.77,13.4-37.23s-5.02-26.46-14.11-36.47c-8.93-9.83-21.32-16.46-34.52-18.07-1.62-.2-3.24-.31-4.87-.35-1.93-.05-1.93,2.95,0,3,12.59.31,24.75,5.65,33.94,14.18s15.41,20.63,16.4,33.47-2.52,25.74-9.9,36.17c-8.18,11.56-21.14,18.71-34.78,21.72-15.71,3.47-32.06,1.38-47.39-2.91-1.99-.56-3.97-1.15-5.94-1.78-1.84-.59-2.63,2.31-.8,2.89h0Z"/><path class="cls-11" d="M397.39,628.1c15.51,7.7,33.8,8.81,50.77,6.86,8.46-.97,16.85-2.98,24.42-7,6.39-3.4,12.11-8.13,16.68-13.74,9.26-11.38,13.57-25.88,11.52-40.45s-10.81-29.28-22.89-38.73-28.52-15.23-44.49-16c-2.01-.1-4.02-.11-6.03-.07s-1.93,3.05,0,3c15.32-.37,30.84,3.56,43.77,11.91,12.47,8.05,21.99,20.49,25.63,34.97,3.43,13.65.91,27.89-6.93,39.57-3.8,5.66-8.74,10.59-14.42,14.35-6.51,4.31-13.87,6.9-21.52,8.32-8.3,1.54-16.91,1.92-25.33,1.5-8.17-.4-16.33-1.77-24.01-4.63-1.93-.72-3.8-1.54-5.64-2.46-1.72-.86-3.25,1.73-1.51,2.59h0Z"/><ellipse class="cls-6" cx="348.15" cy="1017.88" rx="69.5" ry="35.01"/><ellipse class="cls-6" cx="471.15" cy="1020.38" rx="66.5" ry="37.51"/></svg>