<?xml version="1.0" encoding="UTF-8"?><svg id="Layer_1" xmlns="http://www.w3.org/2000/svg" width="628" height="316.73" viewBox="0 0 628 316.73"><defs><style>.cls-1{fill:#000;}.cls-1,.cls-2,.cls-3,.cls-4{stroke-width:0px;}.cls-5{fill:#4d4d4d;}.cls-5,.cls-6{stroke:#1d1d1b;stroke-linecap:round;stroke-miterlimit:10;}.cls-2{fill:#006837;}.cls-3{fill:#e6e6e6;}.cls-4{fill:#f0f;}.cls-6{fill:gray;}</style></defs><rect class="cls-2" width="628" height="316.73" rx="28.41" ry="28.41"/><rect class="cls-3" x="27" y="13.12" width="575" height="290" rx="28.41" ry="28.41"/><path class="cls-4" d="M183.04,165.16c-.1.9-.3,3.05-.6,6.45-.1,1.8-.5,3.15-1.2,4.05-.5.3-1.35.45-2.55.45-3.3,0-7.4-.85-12.3-2.55-5.3-1.6-8.9-3.5-10.8-5.7-.8-.9-1.6-3.9-2.4-9-1.1-6.7-2.35-12.25-3.75-16.65-3.8.5-9.35,1.88-16.65,4.12-7.3,2.25-12.05,4.12-14.25,5.62-1.5,4.3-3.5,9.6-6,15.9-.3,1.4-.63,2.73-.97,3.98-.35,1.25-1.23,2.27-2.62,3.08-.3.2-.75.3-1.35.3-2.4,0-6.43-1.25-12.08-3.75-5.65-2.5-8.58-4.15-8.77-4.95-.4-1.4.55-4.85,2.85-10.35,3.2-8,5.05-12.9,5.55-14.7-2.1-2.1-3.15-4.2-3.15-6.3,0-.5.05-1.05.15-1.65.2-1.2,3.25-3.35,9.15-6.45l19.35-66.15c.3-1.2.35-3.4.15-6.6-.2-2.7.1-4.4.9-5.1.5-.5,1.7-.75,3.6-.75,4.7,0,11.4,1.2,20.1,3.6,8.7,2.4,13.9,4.55,15.6,6.45.6,11.1,2.85,27.75,6.75,49.95,5,27.4,10.1,46.3,15.3,56.7ZM143.89,119.56c-1.3-6.3-2.1-10.45-2.4-12.45-1.1-6.7-1.85-13.65-2.25-20.85-2,4.9-4.35,11.7-7.05,20.4-2.9,9.1-4.45,14.8-4.65,17.1,1.9-.8,7.35-2.2,16.35-4.2Z"/><path class="cls-4" d="M306.79,162.76c.8,1.9,1.2,3.8,1.2,5.7,0,3-1.15,5.05-3.45,6.15-.7.3-1.95.45-3.75.45-3.4,0-7.45-.52-12.15-1.58-4.7-1.05-7.55-2.08-8.55-3.07-.5-.6-.75-1.25-.75-1.95,0-1.1.75-2.87,2.25-5.32,1.5-2.45,2.25-4.22,2.25-5.33.2-39.4-.1-59.25-.9-59.55-1.6-.5-4.85,3.45-9.75,11.85-5.4,9.2-8.1,17.2-8.1,24v29.4c.7,2.3,1.05,4.1,1.05,5.4,0,2.5-1.3,4.4-3.9,5.7-.7.3-1.95.45-3.75.45-3.4,0-7.45-.52-12.15-1.58-4.7-1.05-7.55-2.08-8.55-3.07-.4-.4-.6-.9-.6-1.5,0-1,.72-2.8,2.17-5.4,1.45-2.6,2.18-4.5,2.18-5.7.2-39.4-.1-59.25-.9-59.55-1.4-.5-4.85,4-10.35,13.5-5.8,10-8.7,17.55-8.7,22.65v28.05c1.3,1.3,1.95,2.9,1.95,4.8,0,3.8-1.7,6.4-5.1,7.8-.4.2-1,.3-1.8.3-2.7,0-6.65-.63-11.85-1.88-5.2-1.25-8.1-2.27-8.7-3.07-.6-.8-.9-1.7-.9-2.7s.57-2.2,1.73-3.6c1.15-1.4,1.73-2.3,1.73-2.7v-69.75c0-.8-.4-1.85-1.2-3.15-.8-1.3-1.05-2.4-.75-3.3.6-2.1,2.15-3.45,4.65-4.05,1.6-.4,5.35.15,11.25,1.65,6.4,1.6,9.9,3.25,10.5,4.95.4,1.1.25,2.75-.45,4.95-1.1,3.5-1.65,5.5-1.65,6,0,1.1.2,2.3.6,3.6,1.5-5,3.6-9.45,6.3-13.35,3.3-4.7,6.6-7.05,9.9-7.05s7.55,1.25,13.05,3.75c5.1,2.4,8.25,4.45,9.45,6.15.9,1.2,1.9,4.8,3,10.8,4.1-7.6,6.45-11.95,7.05-13.05,3.4-5.1,6.65-7.65,9.75-7.65,3.4,0,7.8,1.18,13.2,3.52,5.4,2.35,8.5,4.48,9.3,6.38,2.8,6.4,4.2,30.05,4.2,70.95Z"/><path class="cls-4" d="M390.49,169.06c-.1,1.4-.7,2.6-1.8,3.6-1.1,1-2.35,1.4-3.75,1.2-12.4-1.7-19.3-4.05-20.7-7.05-.2-.4-.3-.8-.3-1.2,0-.5.23-1.05.67-1.65.45-.6.72-1.12.83-1.57.1-.45.3-.87.6-1.28.2-.8.25-2.55.15-5.25-1.2.9-3,3.3-5.4,7.2-2.5,4.3-4.7,7.3-6.6,9-3.2,3-6.85,4.5-10.95,4.5-2.4,0-4.75-.95-7.05-2.85-1.1-.9-3.05-2.85-5.85-5.85-4.8-5.4-7.4-8.35-7.8-8.85-2.1-2.8-3.15-5.45-3.15-7.95,0-.8.1-1.6.3-2.4,1.9-8.8,7.8-17.15,17.7-25.05,7.2-5.7,17.4-11.75,30.6-18.15,0-3.2-.8-5.25-2.4-6.15-1-.6-4.5.52-10.5,3.38s-10.2,5.28-12.6,7.27c-.8.8-2.1,1.9-3.9,3.3-1.7,1-3.25,1.3-4.65.9-1.1-.3-3.45-2.1-7.05-5.4-3.6-3.3-5.55-5.5-5.85-6.6-.8-2.7.05-4.8,2.55-6.3.1-.1,2.1-.7,6-1.8,3.7-2,7.4-4,11.1-6,7.8-3.7,14.4-5.7,19.8-6,2.3-.1,4.9,1.1,7.8,3.6,2.6,2.3,5.22,4.57,7.88,6.82,2.65,2.25,5.37,4.43,8.17,6.53,3.2,2.8,4.8,5.5,4.8,8.1v56.7c1,2.6,1.45,4.35,1.35,5.25ZM366.49,125.26c-4.9,1.9-9.1,4.8-12.6,8.7-2.6,3.2-5.2,6.35-7.8,9.45-2.1,2.1-4.08,4.83-5.92,8.17-1.85,3.35-2.78,5.83-2.78,7.43,0,.8.3,1.2.9,1.2,2.1,0,6.8-4.52,14.1-13.57,7.3-9.05,12-16.17,14.1-21.38Z"/><path class="cls-4" d="M406.69,86.26c-2.6,2.8-6.7,4.85-12.3,6.15-1.1.3-2.38-.15-3.83-1.35-1.45-1.2-2.17-2.3-2.17-3.3,0-.5.25-.85.75-1.05,1.3-.5,2.47-1.95,3.52-4.35,1.05-2.4,1.57-4.95,1.57-7.65,0-5.6-2.2-9.4-6.6-11.4-2.4-1.1-3.6-3.2-3.6-6.3,0-.7.1-1.3.3-1.8.6-1.3,2.93-2.97,6.98-5.02,4.05-2.05,6.77-2.87,8.17-2.48,3.4.8,6.38,3.52,8.93,8.18,2.55,4.65,3.82,9.63,3.82,14.92,0,6.3-1.85,11.45-5.55,15.45Z"/><path class="cls-4" d="M479.14,92.86c.4,1.6-.15,2.9-1.65,3.9-1.2.6-2.35,1.25-3.45,1.95-6.3,9.6-14.85,22.55-25.65,38.85,0,15.9.05,24.1.15,24.6.1.5.47,1.78,1.12,3.82.65,2.05.97,3.68.97,4.88,0,1.9-.85,3.2-2.55,3.9-1.1.5-2.6.75-4.5.75-3.8,0-8-.85-12.6-2.55-5.8-2-8.7-4.55-8.7-7.65,0-.9.4-2.35,1.2-4.35.8-2,1.2-3.65,1.2-4.95v-59.4c-1.1-5.6-1.65-8.5-1.65-8.7,0-3.1,1.4-5.05,4.2-5.85,1.2-.3,2.65-.45,4.35-.45,3.5,0,7.17.58,11.02,1.73,3.85,1.15,6.12,2.38,6.83,3.68.2.4.3.9.3,1.5,0,.5-.7,2.9-2.1,7.2v7.2c2.4-4.3,4.75-8.6,7.05-12.9,3.1-5.4,5.4-8.25,6.9-8.55,2.2-.4,5.55.9,10.05,3.9s7,5.5,7.5,7.5Z"/><path class="cls-1" d="M183.57,204.87l14.89-22.22c-3.39.13-6.95.62-10.69,1.46-3.74.85-6.95,1.75-9.62,2.71-2.67.96-5.05,1.87-7.15,2.73-2.1.86-3.61,1.47-4.52,1.83-.23,0-.46-.08-.68-.24-.23-.16-.34-.36-.34-.59,0-.26.76-1.86,2.27-4.79s3.3-6.07,5.35-9.42c11.39-4.07,21.45-6.1,30.18-6.1,10.09,0,17.09,2.15,21,6.45,1.4,1.5,2.48,3.34,3.25,5.54.76,2.2,1.15,4.37,1.15,6.52,0,4.88-1.02,9.32-3.05,13.31-2.03,3.99-4.94,7.45-8.72,10.38-3.78,2.93-8.22,5.17-13.33,6.71-5.11,1.55-10.71,2.32-16.8,2.32-1.07,0-3.27-.2-6.59-.59l-4.39,8.01c.46.68.68,1.24.68,1.66,0,1.01-.23,1.86-.68,2.54-.65.98-1.51,2.26-2.59,3.86-1.07,1.59-1.8,2.65-2.17,3.17-.37.52-.8.98-1.27,1.37-.47.39-.94.59-1.39.59-.94,0-1.55-.29-1.81-.85-.26-.57-.39-1.36-.39-2.37,0-1.43.71-3.7,2.12-6.81s3.56-7.23,6.42-12.38c-1.53-.59-2.72-1.35-3.56-2.29-.85-.94-1.27-1.87-1.27-2.78,0-2.02,1.16-3.89,3.47-5.62,2.31-1.73,5.73-3.09,10.25-4.1ZM188.65,206.19l-2.78,4.69c1.24.07,2.34.13,3.3.2.96.07,1.77.1,2.42.1,5.7,0,10.64-.76,14.82-2.29,4.18-1.53,7.5-3.43,9.96-5.69,2.46-2.26,4.24-4.53,5.35-6.81,1.11-2.28,1.66-4.18,1.66-5.71,0-2.12-.85-3.78-2.54-4.98-1.69-1.2-4.13-2.03-7.3-2.47s-7.27-.66-12.28-.66c.06.36.1.8.1,1.32,0,1.69-.9,3.92-2.69,6.69l-8.5,13.33,6.4-.73c.52,0,.78.24.78.73,0,.42-.42.72-1.27.88l-7.42,1.42Z"/><path class="cls-1" d="M225.95,222.25v-3.17c1.76-2.08,3.09-3.86,4-5.32-1.04-.36-1.8-.8-2.27-1.32-.47-.52-.71-1.3-.71-2.34,0-1.17.49-2.65,1.46-4.44.98-1.79,2.18-3.47,3.61-5.03,1.43-1.56,2.73-2.57,3.91-3.03.46-.23.9-.34,1.32-.34.65,0,.98.31.98.93,0,.55-.5,1.68-1.51,3.37,6.71-1.04,10.94-1.56,12.7-1.56.68,0,1.16.07,1.42.2.55.29,1.01.98,1.37,2.05.36,1.07.54,2.15.54,3.22,0,.68-.3,1.42-.9,2.22-.6.8-1.64,1.96-3.1,3.49-1.73,1.86-3.17,3.87-4.35,6.05-1.17,2.18-1.76,3.83-1.76,4.93,0,1.53.94,2.29,2.83,2.29,1.99,0,5.44-2.02,10.35-6.05v3.27c-2.7,2.83-4.93,5.06-6.69,6.69-1.76,1.63-3.39,2.92-4.88,3.88-1.5.96-2.83,1.44-4,1.44-1.37,0-2.51-.63-3.42-1.88-.91-1.25-1.37-3.07-1.37-5.44,0-1.4.36-2.99,1.07-4.79.72-1.79,1.77-3.74,3.15-5.83,1.38-2.1,2.94-4.19,4.66-6.27-.91.2-1.94.4-3.08.61-1.14.21-2.34.43-3.61.66-1.27.23-2.25.41-2.93.54-2.02,4.04-4.95,7.7-8.79,10.99Z"/><path class="cls-1" d="M278.98,218.49v3.56c-3.16,4.07-6.1,7.14-8.84,9.2-2.73,2.07-5.06,3.1-6.98,3.1-2.67,0-4.66-1.4-5.96-4.2-1.3-2.8-1.95-5.86-1.95-9.18,0-1.27.13-2.48.39-3.64.26-1.16.57-2.11.93-2.86.36-.75,1.03-1.92,2-3.52,4.62-7.19,8.85-10.79,12.7-10.79,1.99,0,2.98.77,2.98,2.29,0,1.04-.64,2.67-1.93,4.88-1.29,2.21-2.43,3.79-3.44,4.74-2.83,2.73-4.68,4.64-5.54,5.71-.86,1.07-1.29,2.29-1.29,3.66,0,1.17.44,2.15,1.32,2.93s2.02,1.17,3.42,1.17c1.53,0,3.21-.56,5.05-1.68,1.84-1.12,4.22-2.92,7.15-5.4ZM275.66,196.66c-.81,0-1.59-.31-2.32-.93-.73-.62-1.1-1.4-1.1-2.34,0-1.43.68-3.03,2.05-4.79s2.78-2.64,4.25-2.64c.98,0,1.79.3,2.44.9.65.6.98,1.47.98,2.61,0,1.4-.67,2.95-2,4.64-1.33,1.69-2.77,2.54-4.3,2.54Z"/><path class="cls-1" d="M311.45,209.65c-5.73,6.38-8.59,10.82-8.59,13.33,0,1.4.57,2.1,1.71,2.1.94,0,2.17-.5,3.69-1.49,1.51-.99,3.88-2.76,7.1-5.3v3.37c-4.62,4.56-8.17,7.85-10.64,9.86-2.47,2.02-4.49,3.03-6.05,3.03-2.67,0-4-1.76-4-5.27,0-1.04.16-2.07.49-3.08.33-1.01.77-2.06,1.34-3.15.57-1.09,1.44-2.65,2.61-4.69,1.17-2.03,2.52-4.34,4.05-6.91-1.86.94-4.18,2.82-6.98,5.62-1.82,1.76-3.37,3.43-4.64,5-1.27,1.58-2.63,3.34-4.08,5.27-1.45,1.94-2.51,3.24-3.17,3.91s-1.34,1-2.03,1c-1.04,0-2-1.09-2.88-3.27-.88-2.18-1.32-4.72-1.32-7.62,0-1.79.2-3.19.61-4.2.41-1.01,1.21-2.44,2.42-4.3,2.25-3.45,4.18-5.98,5.81-7.59,1.63-1.61,3.19-2.42,4.69-2.42,1.04,0,1.88.18,2.51.54.63.36.95.91.95,1.66,0,.33-.1.67-.29,1.03-.2.36-.42.68-.66.98s-.76.86-1.54,1.71c-5.14,5.7-7.71,9.39-7.71,11.08,0,.94.31,1.42.93,1.42.39,0,1.15-.63,2.27-1.88,1.12-1.25,2.57-2.9,4.35-4.93,1.77-2.03,3.87-4.16,6.3-6.37,2.42-2.21,5.18-4.35,8.28-6.4,1.73-1.2,3.16-1.81,4.3-1.81.52,0,1.03.72,1.54,2.15.5,1.43.76,2.88.76,4.35,0,.72-.7,1.81-2.1,3.27Z"/><path class="cls-1" d="M314.87,219.86v-1.17c8.4-8.85,14.18-15.06,17.33-18.6.72-4,2.44-6.01,5.18-6.01.68,0,1.42.2,2.2.59l.29.93c-.13.39-.2.94-.2,1.66,0,.62.24,1.77.71,3.44.47,1.68.84,3.08,1.1,4.22.26,1.14.39,2.43.39,3.86,0,2.15-.49,4.21-1.46,6.18-.98,1.97-2.39,3.86-4.25,5.66s-4.25,3.65-7.18,5.54c1.17.2,2.1.29,2.78.29,1.33,0,2.77-.33,4.32-1,1.55-.67,3.12-1.56,4.74-2.69s3.49-2.58,5.64-4.37v3.27c-4.17,4.07-7.89,7.15-11.18,9.25-3.29,2.1-6.12,3.15-8.5,3.15-3.06,0-5.89-1.3-8.5-3.91-1.53-1.56-2.48-3.06-2.86-4.49-.37-1.43-.56-3.37-.56-5.81ZM333.08,212.39l-.88-7.13c-2.02,2.28-6.33,6.66-12.94,13.13,1.95.42,3.29.99,4,1.71.72.72,1.73,2.1,3.03,4.15,2.21-.91,3.91-2.16,5.1-3.74,1.19-1.58,1.78-3.74,1.78-6.47,0-.33,0-.62-.02-.88-.02-.26-.04-.52-.07-.78Z"/><path class="cls-1" d="M354.08,220.25v1.22c0,1.92.47,3.42,1.42,4.49.94,1.07,2.18,1.61,3.71,1.61s3.25-.37,4.96-1.12c1.71-.75,3.41-1.74,5.1-2.98,1.69-1.24,3.76-2.9,6.2-4.98v2.98c-3.68,4.43-7.13,7.82-10.35,10.18s-6.49,3.54-9.81,3.54c-2.9,0-5.19-1.12-6.88-3.37-1.69-2.25-2.54-5.32-2.54-9.23,0-3.42.8-6.52,2.39-9.3,1.59-2.78,4.2-5.72,7.81-8.81,2.47-2.12,4.93-3.71,7.37-4.79s4.62-1.61,6.54-1.61c1.53,0,2.74.35,3.64,1.05.9.7,1.34,1.75,1.34,3.15,0,2.05-.77,4.09-2.29,6.13-1.53,2.03-3.87,4.05-7.01,6.05-3.14,2-7.01,3.93-11.6,5.79ZM354.57,217.07c2.93-1.14,5.44-2.56,7.52-4.25,2.08-1.69,3.62-3.31,4.61-4.86.99-1.55,1.49-2.68,1.49-3.39s-.34-1.12-1.03-1.12c-.59,0-1.54.37-2.86,1.12-1.32.75-2.65,1.73-4,2.93-1.35,1.2-2.56,2.62-3.64,4.25-1.07,1.63-1.77,3.4-2.1,5.32Z"/><path class="cls-1" d="M375.27,219.86v-1.17c8.4-8.85,14.18-15.06,17.33-18.6.72-4,2.44-6.01,5.18-6.01.68,0,1.42.2,2.2.59l.29.93c-.13.39-.2.94-.2,1.66,0,.62.24,1.77.71,3.44.47,1.68.84,3.08,1.1,4.22.26,1.14.39,2.43.39,3.86,0,2.15-.49,4.21-1.46,6.18-.98,1.97-2.39,3.86-4.25,5.66s-4.25,3.65-7.18,5.54c1.17.2,2.1.29,2.78.29,1.33,0,2.77-.33,4.32-1,1.55-.67,3.12-1.56,4.74-2.69s3.49-2.58,5.64-4.37v3.27c-4.17,4.07-7.89,7.15-11.18,9.25-3.29,2.1-6.12,3.15-8.5,3.15-3.06,0-5.89-1.3-8.5-3.91-1.53-1.56-2.48-3.06-2.86-4.49-.37-1.43-.56-3.37-.56-5.81ZM393.48,212.39l-.88-7.13c-2.02,2.28-6.33,6.66-12.94,13.13,1.95.42,3.29.99,4,1.71.72.72,1.73,2.1,3.03,4.15,2.21-.91,3.91-2.16,5.1-3.74,1.19-1.58,1.78-3.74,1.78-6.47,0-.33,0-.62-.02-.88-.02-.26-.04-.52-.07-.78Z"/><path class="cls-1" d="M406.47,219.86v-1.17c8.4-8.85,14.18-15.06,17.33-18.6.72-4,2.44-6.01,5.18-6.01.68,0,1.42.2,2.2.59l.29.93c-.13.39-.2.94-.2,1.66,0,.62.24,1.77.71,3.44.47,1.68.84,3.08,1.1,4.22.26,1.14.39,2.43.39,3.86,0,2.15-.49,4.21-1.46,6.18-.98,1.97-2.39,3.86-4.25,5.66s-4.25,3.65-7.18,5.54c1.17.2,2.1.29,2.78.29,1.33,0,2.77-.33,4.32-1,1.55-.67,3.12-1.56,4.74-2.69s3.49-2.58,5.64-4.37v3.27c-4.17,4.07-7.89,7.15-11.18,9.25-3.29,2.1-6.12,3.15-8.5,3.15-3.06,0-5.89-1.3-8.5-3.91-1.53-1.56-2.48-3.06-2.86-4.49-.37-1.43-.56-3.37-.56-5.81ZM424.68,212.39l-.88-7.13c-2.02,2.28-6.33,6.66-12.94,13.13,1.95.42,3.29.99,4,1.71.72.72,1.73,2.1,3.03,4.15,2.21-.91,3.91-2.16,5.1-3.74,1.19-1.58,1.78-3.74,1.78-6.47,0-.33,0-.62-.02-.88-.02-.26-.04-.52-.07-.78Z"/><path class="cls-1" d="M445.68,220.25v1.22c0,1.92.47,3.42,1.42,4.49.94,1.07,2.18,1.61,3.71,1.61s3.25-.37,4.96-1.12c1.71-.75,3.41-1.74,5.1-2.98,1.69-1.24,3.76-2.9,6.2-4.98v2.98c-3.68,4.43-7.13,7.82-10.35,10.18s-6.49,3.54-9.81,3.54c-2.9,0-5.19-1.12-6.88-3.37-1.69-2.25-2.54-5.32-2.54-9.23,0-3.42.8-6.52,2.39-9.3,1.59-2.78,4.2-5.72,7.81-8.81,2.47-2.12,4.93-3.71,7.37-4.79s4.62-1.61,6.54-1.61c1.53,0,2.74.35,3.64,1.05.89.7,1.34,1.75,1.34,3.15,0,2.05-.77,4.09-2.29,6.13-1.53,2.03-3.87,4.05-7.01,6.05-3.14,2-7.01,3.93-11.6,5.79ZM446.17,217.07c2.93-1.14,5.44-2.56,7.52-4.25,2.08-1.69,3.62-3.31,4.61-4.86.99-1.55,1.49-2.68,1.49-3.39s-.34-1.12-1.03-1.12c-.59,0-1.54.37-2.86,1.12-1.32.75-2.65,1.73-4,2.93-1.35,1.2-2.56,2.62-3.64,4.25-1.07,1.63-1.77,3.4-2.1,5.32Z"/><path class="cls-1" d="M499.98,209.65c-5.73,6.38-8.59,10.82-8.59,13.33,0,1.4.57,2.1,1.71,2.1.94,0,2.17-.5,3.69-1.49,1.51-.99,3.88-2.76,7.1-5.3v3.37c-4.62,4.56-8.17,7.85-10.64,9.86-2.47,2.02-4.49,3.03-6.05,3.03-2.67,0-4-1.76-4-5.27,0-1.04.16-2.07.49-3.08.33-1.01.77-2.06,1.34-3.15.57-1.09,1.44-2.65,2.61-4.69,1.17-2.03,2.52-4.34,4.05-6.91-1.86.94-4.18,2.82-6.98,5.62-1.82,1.76-3.37,3.43-4.64,5-1.27,1.58-2.63,3.34-4.08,5.27-1.45,1.94-2.51,3.24-3.17,3.91-.67.67-1.34,1-2.03,1-1.04,0-2-1.09-2.88-3.27-.88-2.18-1.32-4.72-1.32-7.62,0-1.79.2-3.19.61-4.2.41-1.01,1.21-2.44,2.42-4.3,2.25-3.45,4.18-5.98,5.81-7.59,1.63-1.61,3.19-2.42,4.69-2.42,1.04,0,1.88.18,2.51.54.63.36.95.91.95,1.66,0,.33-.1.67-.29,1.03-.2.36-.42.68-.66.98s-.76.86-1.54,1.71c-5.14,5.7-7.71,9.39-7.71,11.08,0,.94.31,1.42.93,1.42.39,0,1.15-.63,2.27-1.88,1.12-1.25,2.57-2.9,4.35-4.93,1.77-2.03,3.87-4.16,6.3-6.37,2.42-2.21,5.18-4.35,8.28-6.4,1.72-1.2,3.16-1.81,4.3-1.81.52,0,1.03.72,1.54,2.15.5,1.43.76,2.88.76,4.35,0,.72-.7,1.81-2.1,3.27Z"/><ellipse class="cls-6" cx="56.16" cy="272.75" rx="21.34" ry="21.13"/><ellipse class="cls-5" cx="55.88" cy="272.51" rx="10.62" ry="10.89"/><ellipse class="cls-6" cx="572.3" cy="272.97" rx="21.34" ry="21.13"/><ellipse class="cls-5" cx="572.03" cy="272.74" rx="10.62" ry="10.89"/><ellipse class="cls-6" cx="572.3" cy="42.97" rx="21.34" ry="21.13"/><ellipse class="cls-5" cx="572.03" cy="42.74" rx="10.62" ry="10.89"/><ellipse class="cls-6" cx="56.3" cy="42.97" rx="21.34" ry="21.13"/><ellipse class="cls-5" cx="56.03" cy="42.74" rx="10.62" ry="10.89"/></svg>