<?xml version="1.0" encoding="UTF-8"?><svg id="Layer_1" xmlns="http://www.w3.org/2000/svg" width="338.09" height="209.83" viewBox="0 0 338.09 209.83"><defs><style>.cls-1{fill:#000;stroke-width:0px;}.cls-2{fill:#3fa9f5;}.cls-2,.cls-3,.cls-4{stroke:#1d1d1b;stroke-linecap:round;stroke-miterlimit:10;}.cls-3{fill:#e6e6e6;}.cls-4{fill:#f2f2f2;}</style></defs><rect class="cls-2" x=".5" y=".5" width="282.73" height="208.83" rx="41.58" ry="41.58"/><rect class="cls-3" x="112.52" y="39.65" width="135.48" height="123.36" rx="41.58" ry="41.58"/><path class="cls-4" d="M156.23,81.5c6.24-7.94,14.81-8.83,43-12,75.42-8.49,84.19-10.04,96-17,14.72-8.68,20.73-17.86,28-15,7.19,2.83,8.79,16.89,12,45,.73,6.38,1.15,18.92,2,44,.71,21.06.68,25.68-3,29-5.19,4.69-12.92,2.51-36-2-12.96-2.53-26.03-4.52-39-7-29.89-5.72-36.98-6.7-57-11-30.46-6.55-15.71-4.66-32-8-7.99-1.64-10.27-1.83-13-4-10.01-7.97-10.35-30.09-1-42Z"/><path class="cls-1" d="M14.03,93.93c2.63-3.79,5.66-8.06,10.08-9.88,3.64-1.5,8.06-.92,10.4,2.45,1.88,2.71,4.18,7.34,8.27,5.58s4.89-7.61,8.4-10.29c3.22-2.46,7.57-1,9.54,2.23,1.8,2.95,3.08,7.19,6.98,7.89,3.13.56,5.59-1.64,7.57-3.76,1.52-1.62,3.63-4.81,6.18-4.69,1.81.08,3,1.93,3.97,3.24,1.25,1.68,2.53,3.47,4.49,4.37,5.1,2.35,10.01-2.29,13.04-5.89,1.24-1.47-.88-3.6-2.12-2.12-2.34,2.78-7.1,7.99-10.87,4.45-2.57-2.41-3.94-6.44-7.86-6.98-3.12-.43-5.56,1.85-7.52,3.96-1.46,1.57-3.66,4.84-6.17,4.52-1.61-.21-2.54-1.8-3.25-3.08-.95-1.7-1.73-3.49-2.97-5-2.64-3.21-7.36-4.21-11.12-2.51-4.17,1.88-5.29,6.47-8.05,9.71-.54.63-1.33,1.56-2.27,1.3-.69-.19-1.24-.9-1.65-1.44-1.2-1.57-2.05-3.41-3.47-4.81-3.37-3.31-8.68-3.57-12.86-1.78-4.97,2.13-8.34,6.74-11.33,11.04-1.1,1.59,1.5,3.09,2.59,1.51h0Z"/><path class="cls-1" d="M14.18,120.18c2.63-3.79,5.66-8.06,10.08-9.88,3.64-1.5,8.06-.92,10.4,2.45,1.88,2.71,4.18,7.34,8.27,5.58s4.89-7.61,8.4-10.29c3.22-2.46,7.57-1,9.54,2.23,1.8,2.95,3.08,7.19,6.98,7.89,3.13.56,5.59-1.64,7.57-3.76,1.52-1.62,3.63-4.81,6.18-4.69,1.81.08,3,1.93,3.97,3.24,1.25,1.68,2.53,3.47,4.49,4.37,5.1,2.35,10.01-2.29,13.04-5.89,1.24-1.47-.88-3.6-2.12-2.12-2.34,2.78-7.1,7.99-10.87,4.45-2.57-2.41-3.94-6.44-7.86-6.98-3.12-.43-5.56,1.85-7.52,3.96-1.46,1.57-3.66,4.84-6.17,4.52-1.61-.21-2.54-1.8-3.25-3.08-.95-1.7-1.73-3.49-2.97-5-2.64-3.21-7.36-4.21-11.12-2.51-4.17,1.88-5.29,6.47-8.05,9.71-.54.63-1.33,1.56-2.27,1.3-.69-.19-1.24-.9-1.65-1.44-1.2-1.57-2.05-3.41-3.47-4.81-3.37-3.31-8.68-3.57-12.86-1.78-4.97,2.13-8.34,6.74-11.33,11.04-1.1,1.59,1.5,3.09,2.59,1.51h0Z"/><path class="cls-1" d="M18.18,146.18c2.63-3.79,5.66-8.06,10.08-9.88,3.64-1.5,8.06-.92,10.4,2.45,1.88,2.71,4.18,7.34,8.27,5.58s4.89-7.61,8.4-10.29c3.22-2.46,7.57-1,9.54,2.23,1.8,2.95,3.08,7.19,6.98,7.89,3.13.56,5.59-1.64,7.57-3.76,1.52-1.62,3.63-4.81,6.18-4.69,1.81.08,3,1.93,3.97,3.24,1.25,1.68,2.53,3.47,4.49,4.37,5.1,2.35,10.01-2.29,13.04-5.89,1.24-1.47-.88-3.6-2.12-2.12-2.34,2.78-7.1,7.99-10.87,4.45-2.57-2.41-3.94-6.44-7.86-6.98-3.12-.43-5.56,1.85-7.52,3.96-1.46,1.57-3.66,4.84-6.17,4.52-1.61-.21-2.54-1.8-3.25-3.08-.95-1.7-1.73-3.49-2.97-5-2.64-3.21-7.36-4.21-11.12-2.51-4.17,1.88-5.29,6.47-8.05,9.71-.54.63-1.33,1.56-2.27,1.3-.69-.19-1.24-.9-1.65-1.44-1.2-1.57-2.05-3.41-3.47-4.81-3.37-3.31-8.68-3.57-12.86-1.78-4.97,2.13-8.34,6.74-11.33,11.04-1.1,1.59,1.5,3.09,2.59,1.51h0Z"/></svg>