<?xml version="1.0" encoding="UTF-8"?><svg id="Layer_1" xmlns="http://www.w3.org/2000/svg" width="166.28" height="231" viewBox="0 0 166.28 231"><defs><style>.cls-1{fill:#b3b3b3;}.cls-1,.cls-2{stroke-width:0px;}.cls-3{fill:blue;}.cls-3,.cls-4,.cls-5,.cls-6,.cls-7{stroke-miterlimit:10;}.cls-3,.cls-5,.cls-7{stroke:#1d1d1b;stroke-linecap:round;}.cls-4{fill:#666;}.cls-4,.cls-6{stroke:#000;}.cls-2{fill:#000;}.cls-5{fill:#ff1d25;}.cls-6{fill:none;}.cls-7{fill:#f2f2f2;}</style></defs><line class="cls-6" x1="165.78" y1="20" x2="165.78" y2="225"/><rect class="cls-3" x=".5" y="20.74" width="83.28" height="101.76"/><rect class="cls-7" x="83.76" y="20.28" width="81.7" height="101.76"/><rect class="cls-7" x="1.76" y="123.28" width="81.7" height="101.76"/><path class="cls-1" d="M64.21,39.91c-10.28,0-25.88-.73-42.69-7.06-.43-.16-1.01-.33-1.72-.55-2.39-.71-6-1.77-9.92-4.17C6.51,26.06.86,22.61.77,19.98c-.02-.72.4-1.53,1.24-2.4C8.77,10.62,43.78.5,83.28.5c45.49,0,82.5,8.75,82.5,19.5s-37.01,19.5-82.5,19.5c-2.39,0-5.08.09-7.92.18-3.35.11-7.15.23-11.15.23Z"/><path class="cls-2" d="M83.28,1c49.05,0,82,9.82,82,19s-32.95,19-82,19c-2.4,0-5.09.09-7.94.18-3.35.11-7.14.23-11.13.23-10.24,0-25.78-.73-42.51-7.03-.45-.17-1.03-.34-1.76-.56-2.36-.7-5.93-1.76-9.79-4.12-2.86-1.75-8.8-5.38-8.87-7.73-.02-.57.36-1.28,1.1-2.04C9.97,10.1,46.96,1,83.28,1M83.28,0C40.2,0,.03,12.17.28,20c.09,2.89,5.73,6.34,9.35,8.56,5.16,3.16,9.91,4.08,11.72,4.76,15.85,5.97,30.62,7.09,42.86,7.09,7.38,0,13.84-.41,19.07-.41,45.84,0,83-8.95,83-20S129.11,0,83.28,0h0Z"/><ellipse class="cls-4" cx="97.78" cy="21" rx="24" ry="6.5"/><rect class="cls-3" x="83.78" y="122.95" width="81.7" height="101.76"/><path class="cls-1" d="M83.28,230.5c-52.07,0-81.83-3.26-82.5-5.51.67-2.23,30.43-5.49,82.5-5.49s81.83,3.26,82.5,5.51c-.67,2.23-30.43,5.49-82.5,5.49Z"/><path class="cls-2" d="M83.28,220c48.53,0,77.73,2.82,81.71,5-3.98,2.18-33.18,5-81.71,5s-77.73-2.82-81.71-5c3.98-2.18,33.18-5,81.71-5M83.28,219c-45.84,0-83,2.69-83,6s37.16,6,83,6,83-2.69,83-6-37.16-6-83-6h0Z"/><path class="cls-5" d="M55.78,92.5c-.44.08-.34,3.46,0,6,.06.43.11.75.16,1,.45,2.63,1.03,4.27,1.84,7,1.29,4.31,1.18,4.7,1,5-.76,1.26-2.34.57-5,2-.74.4-2.92,1.57-4,4-.14.31-1.63,3.76,0,6,1.73,2.38,6.09,2.15,9,2,3.14-.16,4.31-.87,6,0,1.82.94,2.57,2.85,3,4,1.09,2.89.58,4.75,0,11-.64,6.94-.43,9.09,0,11,.13.57,1.4,6.03,3,6,1.06-.02,1.35-2.43,4-10,2.17-6.2,2.62-6.4,3-9,.22-1.52.37-3.46,1-7,.57-3.18.95-4.42,2-5,1.02-.57,1.71.03,4,0,1.6-.02,2.07-.32,5-1,4.01-.93,6.01-1.39,7-1,2.82,1.11,3.66,5.31,4,7,.58,2.92-.03,4.19,0,8,.02,2.13.38,4.09,1,8,.45,2.83.79,4.42,2,6,.45.58,1.73,2.26,3,2,1.18-.24,1.71-2.01,2-3,.75-2.54.21-3.99,0-8-.01-.26,0-2.17,0-6,.02-6.39.07-6.12,0-7-.25-3.26-.73-3.94-1-8-.13-2.02-.19-3.04,0-4,.44-2.15,1.31-2.64,3-6,.8-1.6,1.53-3.05,2-5,.64-2.67.68-5.82,0-6-.73-.19-1.45,3.24-5,7-1.24,1.31-2.28,2.39-4,3-1.85.65-3.07.25-6,0-3.87-.33-3.5.22-8,0-5.14-.25-4.72-.92-9-1-3.65-.07-4.59.41-8,0-.41-.05-2.43-.3-5-1-1.51-.41-2.27-.62-3-1-2.27-1.2-3.3-3.42-4-5-3.23-7.26-4.46-12.1-5-12Z"/></svg>